<?xml version="1.0" encoding="utf-8" standalone="no"?>
<!DOCTYPE svg PUBLIC "-//W3C//DTD SVG 1.1//EN"
  "http://www.w3.org/Graphics/SVG/1.1/DTD/svg11.dtd">
<svg xmlns:xlink="http://www.w3.org/1999/xlink" width="691.2pt" height="718.56pt" viewBox="0 0 691.2 718.56" xmlns="http://www.w3.org/2000/svg" version="1.1">
 <metadata>
  <rdf:RDF xmlns:dc="http://purl.org/dc/elements/1.1/" xmlns:cc="http://creativecommons.org/ns#" xmlns:rdf="http://www.w3.org/1999/02/22-rdf-syntax-ns#">
   <cc:Work>
    <dc:type rdf:resource="http://purl.org/dc/dcmitype/StillImage"/>
    <dc:date>2023-11-03T20:40:33.880440</dc:date>
    <dc:format>image/svg+xml</dc:format>
    <dc:creator>
     <cc:Agent>
      <dc:title>Matplotlib v3.8.0, https://matplotlib.org/</dc:title>
     </cc:Agent>
    </dc:creator>
   </cc:Work>
  </rdf:RDF>
 </metadata>
 <defs>
  <style type="text/css">*{stroke-linejoin: round; stroke-linecap: butt}</style>
 </defs>
 <g id="figure_1">
  <g id="patch_1">
   <path d="M 0 718.56 
L 691.2 718.56 
L 691.2 0 
L 0 0 
z
" style="fill: #ffffff"/>
  </g>
  <g id="axes_1">
   <g id="patch_2">
    <path d="M 45.610909 696.105 
L 675 696.105 
L 675 55.888 
L 45.610909 55.888 
z
" style="fill: #ffffff"/>
   </g>
   <g id="matplotlib.axis_1">
    <g id="xtick_1">
     <g id="line2d_1">
      <defs>
       <path id="m9975d85dc3" d="M 0 0 
L 0 3.5 
" style="stroke: #000000; stroke-width: 0.8"/>
      </defs>
      <g>
       <use xlink:href="#m9975d85dc3" x="74.219504" y="278.993924" style="stroke: #000000; stroke-width: 0.8"/>
      </g>
     </g>
     <g id="text_1">
      <!-- 0.0 -->
      <g transform="translate(66.267942 293.592362) scale(0.1 -0.1)">
       <defs>
        <path id="DejaVuSans-30" d="M 2034 4250 
Q 1547 4250 1301 3770 
Q 1056 3291 1056 2328 
Q 1056 1369 1301 889 
Q 1547 409 2034 409 
Q 2525 409 2770 889 
Q 3016 1369 3016 2328 
Q 3016 3291 2770 3770 
Q 2525 4250 2034 4250 
z
M 2034 4750 
Q 2819 4750 3233 4129 
Q 3647 3509 3647 2328 
Q 3647 1150 3233 529 
Q 2819 -91 2034 -91 
Q 1250 -91 836 529 
Q 422 1150 422 2328 
Q 422 3509 836 4129 
Q 1250 4750 2034 4750 
z
" transform="scale(0.015625)"/>
        <path id="DejaVuSans-2e" d="M 684 794 
L 1344 794 
L 1344 0 
L 684 0 
L 684 794 
z
" transform="scale(0.015625)"/>
       </defs>
       <use xlink:href="#DejaVuSans-30"/>
       <use xlink:href="#DejaVuSans-2e" x="63.623047"/>
       <use xlink:href="#DejaVuSans-30" x="95.410156"/>
      </g>
     </g>
    </g>
    <g id="xtick_2">
     <g id="line2d_2">
      <g>
       <use xlink:href="#m9975d85dc3" x="169.581488" y="278.993924" style="stroke: #000000; stroke-width: 0.8"/>
      </g>
     </g>
     <g id="text_2">
      <!-- 0.5 -->
      <g transform="translate(161.629925 293.592362) scale(0.1 -0.1)">
       <defs>
        <path id="DejaVuSans-35" d="M 691 4666 
L 3169 4666 
L 3169 4134 
L 1269 4134 
L 1269 2991 
Q 1406 3038 1543 3061 
Q 1681 3084 1819 3084 
Q 2600 3084 3056 2656 
Q 3513 2228 3513 1497 
Q 3513 744 3044 326 
Q 2575 -91 1722 -91 
Q 1428 -91 1123 -41 
Q 819 9 494 109 
L 494 744 
Q 775 591 1075 516 
Q 1375 441 1709 441 
Q 2250 441 2565 725 
Q 2881 1009 2881 1497 
Q 2881 1984 2565 2268 
Q 2250 2553 1709 2553 
Q 1456 2553 1204 2497 
Q 953 2441 691 2322 
L 691 4666 
z
" transform="scale(0.015625)"/>
       </defs>
       <use xlink:href="#DejaVuSans-30"/>
       <use xlink:href="#DejaVuSans-2e" x="63.623047"/>
       <use xlink:href="#DejaVuSans-35" x="95.410156"/>
      </g>
     </g>
    </g>
    <g id="xtick_3">
     <g id="line2d_3">
      <g>
       <use xlink:href="#m9975d85dc3" x="264.943471" y="278.993924" style="stroke: #000000; stroke-width: 0.8"/>
      </g>
     </g>
     <g id="text_3">
      <!-- 1.0 -->
      <g transform="translate(256.991909 293.592362) scale(0.1 -0.1)">
       <defs>
        <path id="DejaVuSans-31" d="M 794 531 
L 1825 531 
L 1825 4091 
L 703 3866 
L 703 4441 
L 1819 4666 
L 2450 4666 
L 2450 531 
L 3481 531 
L 3481 0 
L 794 0 
L 794 531 
z
" transform="scale(0.015625)"/>
       </defs>
       <use xlink:href="#DejaVuSans-31"/>
       <use xlink:href="#DejaVuSans-2e" x="63.623047"/>
       <use xlink:href="#DejaVuSans-30" x="95.410156"/>
      </g>
     </g>
    </g>
    <g id="xtick_4">
     <g id="line2d_4">
      <g>
       <use xlink:href="#m9975d85dc3" x="360.305455" y="278.993924" style="stroke: #000000; stroke-width: 0.8"/>
      </g>
     </g>
     <g id="text_4">
      <!-- 1.5 -->
      <g transform="translate(352.353892 293.592362) scale(0.1 -0.1)">
       <use xlink:href="#DejaVuSans-31"/>
       <use xlink:href="#DejaVuSans-2e" x="63.623047"/>
       <use xlink:href="#DejaVuSans-35" x="95.410156"/>
      </g>
     </g>
    </g>
    <g id="xtick_5">
     <g id="line2d_5">
      <g>
       <use xlink:href="#m9975d85dc3" x="455.667438" y="278.993924" style="stroke: #000000; stroke-width: 0.8"/>
      </g>
     </g>
     <g id="text_5">
      <!-- 2.0 -->
      <g transform="translate(447.715876 293.592362) scale(0.1 -0.1)">
       <defs>
        <path id="DejaVuSans-32" d="M 1228 531 
L 3431 531 
L 3431 0 
L 469 0 
L 469 531 
Q 828 903 1448 1529 
Q 2069 2156 2228 2338 
Q 2531 2678 2651 2914 
Q 2772 3150 2772 3378 
Q 2772 3750 2511 3984 
Q 2250 4219 1831 4219 
Q 1534 4219 1204 4116 
Q 875 4013 500 3803 
L 500 4441 
Q 881 4594 1212 4672 
Q 1544 4750 1819 4750 
Q 2544 4750 2975 4387 
Q 3406 4025 3406 3419 
Q 3406 3131 3298 2873 
Q 3191 2616 2906 2266 
Q 2828 2175 2409 1742 
Q 1991 1309 1228 531 
z
" transform="scale(0.015625)"/>
       </defs>
       <use xlink:href="#DejaVuSans-32"/>
       <use xlink:href="#DejaVuSans-2e" x="63.623047"/>
       <use xlink:href="#DejaVuSans-30" x="95.410156"/>
      </g>
     </g>
    </g>
    <g id="xtick_6">
     <g id="line2d_6">
      <g>
       <use xlink:href="#m9975d85dc3" x="551.029421" y="278.993924" style="stroke: #000000; stroke-width: 0.8"/>
      </g>
     </g>
     <g id="text_6">
      <!-- 2.5 -->
      <g transform="translate(543.077859 293.592362) scale(0.1 -0.1)">
       <use xlink:href="#DejaVuSans-32"/>
       <use xlink:href="#DejaVuSans-2e" x="63.623047"/>
       <use xlink:href="#DejaVuSans-35" x="95.410156"/>
      </g>
     </g>
    </g>
    <g id="xtick_7">
     <g id="line2d_7">
      <g>
       <use xlink:href="#m9975d85dc3" x="646.391405" y="278.993924" style="stroke: #000000; stroke-width: 0.8"/>
      </g>
     </g>
     <g id="text_7">
      <!-- 3.0 -->
      <g transform="translate(638.439842 293.592362) scale(0.1 -0.1)">
       <defs>
        <path id="DejaVuSans-33" d="M 2597 2516 
Q 3050 2419 3304 2112 
Q 3559 1806 3559 1356 
Q 3559 666 3084 287 
Q 2609 -91 1734 -91 
Q 1441 -91 1130 -33 
Q 819 25 488 141 
L 488 750 
Q 750 597 1062 519 
Q 1375 441 1716 441 
Q 2309 441 2620 675 
Q 2931 909 2931 1356 
Q 2931 1769 2642 2001 
Q 2353 2234 1838 2234 
L 1294 2234 
L 1294 2753 
L 1863 2753 
Q 2328 2753 2575 2939 
Q 2822 3125 2822 3475 
Q 2822 3834 2567 4026 
Q 2313 4219 1838 4219 
Q 1578 4219 1281 4162 
Q 984 4106 628 3988 
L 628 4550 
Q 988 4650 1302 4700 
Q 1616 4750 1894 4750 
Q 2613 4750 3031 4423 
Q 3450 4097 3450 3541 
Q 3450 3153 3228 2886 
Q 3006 2619 2597 2516 
z
" transform="scale(0.015625)"/>
       </defs>
       <use xlink:href="#DejaVuSans-33"/>
       <use xlink:href="#DejaVuSans-2e" x="63.623047"/>
       <use xlink:href="#DejaVuSans-30" x="95.410156"/>
      </g>
     </g>
    </g>
    <g id="text_8">
     <!-- $t$ -->
     <g transform="translate(358.305455 307.270487) scale(0.1 -0.1)">
      <defs>
       <path id="DejaVuSans-Oblique-74" d="M 2706 3500 
L 2619 3053 
L 1472 3053 
L 1100 1153 
Q 1081 1047 1072 975 
Q 1063 903 1063 863 
Q 1063 663 1183 572 
Q 1303 481 1569 481 
L 2150 481 
L 2053 0 
L 1503 0 
Q 991 0 739 200 
Q 488 400 488 806 
Q 488 878 497 964 
Q 506 1050 525 1153 
L 897 3053 
L 409 3053 
L 500 3500 
L 978 3500 
L 1172 4494 
L 1747 4494 
L 1556 3500 
L 2706 3500 
z
" transform="scale(0.015625)"/>
      </defs>
      <use xlink:href="#DejaVuSans-Oblique-74" transform="translate(0 0.78125)"/>
     </g>
    </g>
   </g>
   <g id="matplotlib.axis_2">
    <g id="ytick_1">
     <g id="line2d_8">
      <defs>
       <path id="me8979216a2" d="M 0 0 
L -3.5 0 
" style="stroke: #000000; stroke-width: 0.8"/>
      </defs>
      <g>
       <use xlink:href="#me8979216a2" x="74.219504" y="631.730563" style="stroke: #000000; stroke-width: 0.8"/>
      </g>
     </g>
     <g id="text_9">
      <!-- −8 -->
      <g transform="translate(52.477317 635.529782) scale(0.1 -0.1)">
       <defs>
        <path id="DejaVuSans-2212" d="M 678 2272 
L 4684 2272 
L 4684 1741 
L 678 1741 
L 678 2272 
z
" transform="scale(0.015625)"/>
        <path id="DejaVuSans-38" d="M 2034 2216 
Q 1584 2216 1326 1975 
Q 1069 1734 1069 1313 
Q 1069 891 1326 650 
Q 1584 409 2034 409 
Q 2484 409 2743 651 
Q 3003 894 3003 1313 
Q 3003 1734 2745 1975 
Q 2488 2216 2034 2216 
z
M 1403 2484 
Q 997 2584 770 2862 
Q 544 3141 544 3541 
Q 544 4100 942 4425 
Q 1341 4750 2034 4750 
Q 2731 4750 3128 4425 
Q 3525 4100 3525 3541 
Q 3525 3141 3298 2862 
Q 3072 2584 2669 2484 
Q 3125 2378 3379 2068 
Q 3634 1759 3634 1313 
Q 3634 634 3220 271 
Q 2806 -91 2034 -91 
Q 1263 -91 848 271 
Q 434 634 434 1313 
Q 434 1759 690 2068 
Q 947 2378 1403 2484 
z
M 1172 3481 
Q 1172 3119 1398 2916 
Q 1625 2713 2034 2713 
Q 2441 2713 2670 2916 
Q 2900 3119 2900 3481 
Q 2900 3844 2670 4047 
Q 2441 4250 2034 4250 
Q 1625 4250 1398 4047 
Q 1172 3844 1172 3481 
z
" transform="scale(0.015625)"/>
       </defs>
       <use xlink:href="#DejaVuSans-2212"/>
       <use xlink:href="#DejaVuSans-38" x="83.789062"/>
      </g>
     </g>
    </g>
    <g id="ytick_2">
     <g id="line2d_9">
      <g>
       <use xlink:href="#me8979216a2" x="74.219504" y="543.546404" style="stroke: #000000; stroke-width: 0.8"/>
      </g>
     </g>
     <g id="text_10">
      <!-- −6 -->
      <g transform="translate(52.477317 547.345622) scale(0.1 -0.1)">
       <defs>
        <path id="DejaVuSans-36" d="M 2113 2584 
Q 1688 2584 1439 2293 
Q 1191 2003 1191 1497 
Q 1191 994 1439 701 
Q 1688 409 2113 409 
Q 2538 409 2786 701 
Q 3034 994 3034 1497 
Q 3034 2003 2786 2293 
Q 2538 2584 2113 2584 
z
M 3366 4563 
L 3366 3988 
Q 3128 4100 2886 4159 
Q 2644 4219 2406 4219 
Q 1781 4219 1451 3797 
Q 1122 3375 1075 2522 
Q 1259 2794 1537 2939 
Q 1816 3084 2150 3084 
Q 2853 3084 3261 2657 
Q 3669 2231 3669 1497 
Q 3669 778 3244 343 
Q 2819 -91 2113 -91 
Q 1303 -91 875 529 
Q 447 1150 447 2328 
Q 447 3434 972 4092 
Q 1497 4750 2381 4750 
Q 2619 4750 2861 4703 
Q 3103 4656 3366 4563 
z
" transform="scale(0.015625)"/>
       </defs>
       <use xlink:href="#DejaVuSans-2212"/>
       <use xlink:href="#DejaVuSans-36" x="83.789062"/>
      </g>
     </g>
    </g>
    <g id="ytick_3">
     <g id="line2d_10">
      <g>
       <use xlink:href="#me8979216a2" x="74.219504" y="455.362244" style="stroke: #000000; stroke-width: 0.8"/>
      </g>
     </g>
     <g id="text_11">
      <!-- −4 -->
      <g transform="translate(52.477317 459.161463) scale(0.1 -0.1)">
       <defs>
        <path id="DejaVuSans-34" d="M 2419 4116 
L 825 1625 
L 2419 1625 
L 2419 4116 
z
M 2253 4666 
L 3047 4666 
L 3047 1625 
L 3713 1625 
L 3713 1100 
L 3047 1100 
L 3047 0 
L 2419 0 
L 2419 1100 
L 313 1100 
L 313 1709 
L 2253 4666 
z
" transform="scale(0.015625)"/>
       </defs>
       <use xlink:href="#DejaVuSans-2212"/>
       <use xlink:href="#DejaVuSans-34" x="83.789062"/>
      </g>
     </g>
    </g>
    <g id="ytick_4">
     <g id="line2d_11">
      <g>
       <use xlink:href="#me8979216a2" x="74.219504" y="367.178084" style="stroke: #000000; stroke-width: 0.8"/>
      </g>
     </g>
     <g id="text_12">
      <!-- −2 -->
      <g transform="translate(52.477317 370.977303) scale(0.1 -0.1)">
       <use xlink:href="#DejaVuSans-2212"/>
       <use xlink:href="#DejaVuSans-32" x="83.789062"/>
      </g>
     </g>
    </g>
    <g id="ytick_5">
     <g id="line2d_12">
      <g>
       <use xlink:href="#me8979216a2" x="74.219504" y="278.993924" style="stroke: #000000; stroke-width: 0.8"/>
      </g>
     </g>
     <g id="text_13">
      <!-- 0 -->
      <g transform="translate(60.857004 282.793143) scale(0.1 -0.1)">
       <use xlink:href="#DejaVuSans-30"/>
      </g>
     </g>
    </g>
    <g id="ytick_6">
     <g id="line2d_13">
      <g>
       <use xlink:href="#me8979216a2" x="74.219504" y="190.809764" style="stroke: #000000; stroke-width: 0.8"/>
      </g>
     </g>
     <g id="text_14">
      <!-- 2 -->
      <g transform="translate(60.857004 194.608983) scale(0.1 -0.1)">
       <use xlink:href="#DejaVuSans-32"/>
      </g>
     </g>
    </g>
    <g id="ytick_7">
     <g id="line2d_14">
      <g>
       <use xlink:href="#me8979216a2" x="74.219504" y="102.625605" style="stroke: #000000; stroke-width: 0.8"/>
      </g>
     </g>
     <g id="text_15">
      <!-- 4 -->
      <g transform="translate(60.857004 106.424823) scale(0.1 -0.1)">
       <use xlink:href="#DejaVuSans-34"/>
      </g>
     </g>
    </g>
    <g id="text_16">
     <!-- p(t) = det(A - tI) -->
     <g transform="translate(46.397629 416.350406) rotate(-90) scale(0.1 -0.1)">
      <defs>
       <path id="DejaVuSans-70" d="M 1159 525 
L 1159 -1331 
L 581 -1331 
L 581 3500 
L 1159 3500 
L 1159 2969 
Q 1341 3281 1617 3432 
Q 1894 3584 2278 3584 
Q 2916 3584 3314 3078 
Q 3713 2572 3713 1747 
Q 3713 922 3314 415 
Q 2916 -91 2278 -91 
Q 1894 -91 1617 61 
Q 1341 213 1159 525 
z
M 3116 1747 
Q 3116 2381 2855 2742 
Q 2594 3103 2138 3103 
Q 1681 3103 1420 2742 
Q 1159 2381 1159 1747 
Q 1159 1113 1420 752 
Q 1681 391 2138 391 
Q 2594 391 2855 752 
Q 3116 1113 3116 1747 
z
" transform="scale(0.015625)"/>
       <path id="DejaVuSans-28" d="M 1984 4856 
Q 1566 4138 1362 3434 
Q 1159 2731 1159 2009 
Q 1159 1288 1364 580 
Q 1569 -128 1984 -844 
L 1484 -844 
Q 1016 -109 783 600 
Q 550 1309 550 2009 
Q 550 2706 781 3412 
Q 1013 4119 1484 4856 
L 1984 4856 
z
" transform="scale(0.015625)"/>
       <path id="DejaVuSans-74" d="M 1172 4494 
L 1172 3500 
L 2356 3500 
L 2356 3053 
L 1172 3053 
L 1172 1153 
Q 1172 725 1289 603 
Q 1406 481 1766 481 
L 2356 481 
L 2356 0 
L 1766 0 
Q 1100 0 847 248 
Q 594 497 594 1153 
L 594 3053 
L 172 3053 
L 172 3500 
L 594 3500 
L 594 4494 
L 1172 4494 
z
" transform="scale(0.015625)"/>
       <path id="DejaVuSans-29" d="M 513 4856 
L 1013 4856 
Q 1481 4119 1714 3412 
Q 1947 2706 1947 2009 
Q 1947 1309 1714 600 
Q 1481 -109 1013 -844 
L 513 -844 
Q 928 -128 1133 580 
Q 1338 1288 1338 2009 
Q 1338 2731 1133 3434 
Q 928 4138 513 4856 
z
" transform="scale(0.015625)"/>
       <path id="DejaVuSans-20" transform="scale(0.015625)"/>
       <path id="DejaVuSans-3d" d="M 678 2906 
L 4684 2906 
L 4684 2381 
L 678 2381 
L 678 2906 
z
M 678 1631 
L 4684 1631 
L 4684 1100 
L 678 1100 
L 678 1631 
z
" transform="scale(0.015625)"/>
       <path id="DejaVuSans-64" d="M 2906 2969 
L 2906 4863 
L 3481 4863 
L 3481 0 
L 2906 0 
L 2906 525 
Q 2725 213 2448 61 
Q 2172 -91 1784 -91 
Q 1150 -91 751 415 
Q 353 922 353 1747 
Q 353 2572 751 3078 
Q 1150 3584 1784 3584 
Q 2172 3584 2448 3432 
Q 2725 3281 2906 2969 
z
M 947 1747 
Q 947 1113 1208 752 
Q 1469 391 1925 391 
Q 2381 391 2643 752 
Q 2906 1113 2906 1747 
Q 2906 2381 2643 2742 
Q 2381 3103 1925 3103 
Q 1469 3103 1208 2742 
Q 947 2381 947 1747 
z
" transform="scale(0.015625)"/>
       <path id="DejaVuSans-65" d="M 3597 1894 
L 3597 1613 
L 953 1613 
Q 991 1019 1311 708 
Q 1631 397 2203 397 
Q 2534 397 2845 478 
Q 3156 559 3463 722 
L 3463 178 
Q 3153 47 2828 -22 
Q 2503 -91 2169 -91 
Q 1331 -91 842 396 
Q 353 884 353 1716 
Q 353 2575 817 3079 
Q 1281 3584 2069 3584 
Q 2775 3584 3186 3129 
Q 3597 2675 3597 1894 
z
M 3022 2063 
Q 3016 2534 2758 2815 
Q 2500 3097 2075 3097 
Q 1594 3097 1305 2825 
Q 1016 2553 972 2059 
L 3022 2063 
z
" transform="scale(0.015625)"/>
       <path id="DejaVuSans-41" d="M 2188 4044 
L 1331 1722 
L 3047 1722 
L 2188 4044 
z
M 1831 4666 
L 2547 4666 
L 4325 0 
L 3669 0 
L 3244 1197 
L 1141 1197 
L 716 0 
L 50 0 
L 1831 4666 
z
" transform="scale(0.015625)"/>
       <path id="DejaVuSans-2d" d="M 313 2009 
L 1997 2009 
L 1997 1497 
L 313 1497 
L 313 2009 
z
" transform="scale(0.015625)"/>
       <path id="DejaVuSans-49" d="M 628 4666 
L 1259 4666 
L 1259 0 
L 628 0 
L 628 4666 
z
" transform="scale(0.015625)"/>
      </defs>
      <use xlink:href="#DejaVuSans-70"/>
      <use xlink:href="#DejaVuSans-28" x="63.476562"/>
      <use xlink:href="#DejaVuSans-74" x="102.490234"/>
      <use xlink:href="#DejaVuSans-29" x="141.699219"/>
      <use xlink:href="#DejaVuSans-20" x="180.712891"/>
      <use xlink:href="#DejaVuSans-3d" x="212.5"/>
      <use xlink:href="#DejaVuSans-20" x="296.289062"/>
      <use xlink:href="#DejaVuSans-64" x="328.076172"/>
      <use xlink:href="#DejaVuSans-65" x="391.552734"/>
      <use xlink:href="#DejaVuSans-74" x="453.076172"/>
      <use xlink:href="#DejaVuSans-28" x="492.285156"/>
      <use xlink:href="#DejaVuSans-41" x="531.298828"/>
      <use xlink:href="#DejaVuSans-20" x="599.707031"/>
      <use xlink:href="#DejaVuSans-2d" x="631.494141"/>
      <use xlink:href="#DejaVuSans-20" x="667.578125"/>
      <use xlink:href="#DejaVuSans-74" x="699.365234"/>
      <use xlink:href="#DejaVuSans-49" x="738.574219"/>
      <use xlink:href="#DejaVuSans-29" x="768.066406"/>
     </g>
    </g>
   </g>
   <g id="line2d_15">
    <path d="M 74.219504 190.809764 
L 82.009043 199.522607 
L 91.238009 209.108732 
L 100.875408 218.296994 
L 110.557184 226.71579 
L 119.344765 233.681641 
L 128.171178 240.058279 
L 137.593309 246.209156 
L 146.900082 251.650085 
L 156.862423 256.810339 
L 165.192696 260.624916 
L 174.499036 264.376361 
L 183.721962 267.592248 
L 192.129938 270.113956 
L 201.036487 272.384668 
L 205.805352 273.440253 
L 211.430979 274.548987 
L 215.995377 275.344421 
L 221.326868 276.160602 
L 225.827748 276.75895 
L 230.40631 277.286253 
L 234.920081 277.729305 
L 238.986397 278.066076 
L 244.523259 278.434367 
L 249.815846 278.694532 
L 254.760784 278.861532 
L 259.848314 278.961616 
L 264.450773 278.993629 
L 268.366316 278.979978 
L 277.894988 278.804406 
L 286.821671 278.480285 
L 295.19185 278.06076 
L 304.816212 277.469711 
L 316.548323 276.639349 
L 328.695943 275.714142 
L 339.922936 274.858407 
L 349.783471 274.150235 
L 360.07071 273.496015 
L 370.653919 272.956265 
L 380.817098 272.606765 
L 385.829226 272.507757 
L 391.646289 272.462005 
L 396.092072 272.481558 
L 400.778786 272.55738 
L 405.514597 272.695491 
L 409.799642 272.877091 
L 413.758612 273.095385 
L 417.394769 273.340706 
L 422.153798 273.729771 
L 426.416763 274.146823 
L 430.602044 274.622257 
L 434.056533 275.065919 
L 437.930057 275.620592 
L 442.159784 276.297848 
L 446.066244 276.992145 
L 450.812426 277.927945 
L 457.945279 279.533175 
L 465.24867 281.437077 
L 472.329098 283.548211 
L 478.195325 285.504972 
L 487.037486 288.828003 
L 494.893309 292.175993 
L 502.191423 295.636733 
L 509.352903 299.375484 
L 519.129942 305.05347 
L 529.804449 312.047299 
L 538.647142 318.501274 
L 546.891289 325.08222 
L 556.450801 333.423203 
L 564.794948 341.351813 
L 573.70046 350.506413 
L 582.254528 359.997576 
L 590.790712 370.174647 
L 597.970463 379.297813 
L 608.107624 393.084054 
L 617.109659 406.243754 
L 625.18139 418.800974 
L 633.147973 431.917234 
L 639.998546 443.784927 
L 646.391405 455.362244 
" clip-path="url(#pfed3a7b097)" style="fill: none; stroke: #1f77b4; stroke-width: 1.5; stroke-linecap: square"/>
   </g>
   <g id="line2d_16">
    <path d="M 74.219504 243.72026 
L 83.311287 251.311334 
L 93.470217 258.880424 
L 101.633912 264.290691 
L 110.920724 269.745386 
L 120.036511 274.403471 
L 128.794766 278.256242 
L 135.822998 280.924253 
L 143.888139 283.539456 
L 150.975579 285.458917 
L 154.581008 286.304004 
L 158.341873 287.093677 
L 161.831297 287.744225 
L 165.95346 288.413146 
L 170.292463 289.003514 
L 174.263626 289.444199 
L 178.063481 289.778995 
L 181.689778 290.02122 
L 184.6132 290.162807 
L 188.111429 290.270678 
L 191.536448 290.312803 
L 195.53377 290.284585 
L 198.753872 290.202812 
L 202.028656 290.067034 
L 206.303343 289.812175 
L 210.612972 289.469035 
L 214.866211 289.048499 
L 218.71424 288.600397 
L 223.074243 288.01787 
L 227.052457 287.419584 
L 234.109969 286.20905 
L 241.630231 284.722134 
L 250.113154 282.820815 
L 258.502224 280.728861 
L 266.078718 278.677432 
L 274.89224 276.120228 
L 285.219259 272.92369 
L 296.764578 269.143534 
L 306.916724 265.68422 
L 315.158019 262.811749 
L 323.719207 259.791431 
L 331.958532 256.871716 
L 340.823251 253.740932 
L 351.848781 249.901469 
L 363.55731 245.943723 
L 373.686661 242.665334 
L 384.681627 239.308087 
L 394.679558 236.4787 
L 405.113316 233.795481 
L 413.52478 231.861787 
L 422.032195 230.139408 
L 427.388648 229.185879 
L 432.370876 228.395945 
L 437.068019 227.741155 
L 442.346151 227.114537 
L 447.091442 226.654243 
L 449.607613 226.451222 
L 452.625367 226.246339 
L 455.629926 226.085166 
L 459.193691 225.95081 
L 462.376121 225.884269 
L 465.071312 225.868296 
L 468.040176 225.894511 
L 470.501273 225.951749 
L 473.245236 226.054256 
L 475.506817 226.169945 
L 477.584997 226.301518 
L 479.71692 226.462006 
L 481.85607 226.649377 
L 484.344853 226.901072 
L 486.704665 227.173709 
L 488.844512 227.449959 
L 493.409474 228.133319 
L 497.214466 228.802885 
L 501.490488 229.666584 
L 506.464705 230.82326 
L 511.842397 232.262774 
L 517.511193 233.999205 
L 522.831655 235.83949 
L 533.821018 240.311074 
L 544.147296 245.373515 
L 552.213235 249.935603 
L 561.206901 255.677695 
L 570.936294 262.698542 
L 580.013912 270.037438 
L 588.810673 277.902954 
L 599.035573 288.012429 
L 607.193708 296.850016 
L 616.012446 307.199332 
L 623.641886 316.839857 
L 630.450301 325.995545 
L 639.15423 338.479135 
L 646.391405 349.541252 
" clip-path="url(#pfed3a7b097)" style="fill: none; stroke: #ff7f0e; stroke-width: 1.5; stroke-linecap: square"/>
   </g>
   <g id="line2d_17">
    <path d="M 74.219504 296.630756 
L 84.027511 302.065686 
L 94.584416 306.914444 
L 100.192445 309.083009 
L 105.712912 310.950236 
L 109.159819 311.984394 
L 112.231167 312.822098 
L 114.856729 313.47649 
L 118.056459 314.198123 
L 120.675598 314.727604 
L 123.201245 315.186685 
L 125.539072 315.567104 
L 128.095461 315.934685 
L 130.362338 316.218836 
L 132.366345 316.437685 
L 134.569282 316.643611 
L 136.50846 316.795166 
L 138.899232 316.944146 
L 140.88565 317.036472 
L 142.871135 317.100542 
L 145.188852 317.140052 
L 147.150925 317.144128 
L 149.289938 317.118247 
L 151.784995 317.048573 
L 153.98105 316.952516 
L 155.800794 316.848583 
L 157.574743 316.72627 
L 161.165533 316.416124 
L 164.783935 316.020363 
L 168.480007 315.531723 
L 172.581667 314.891952 
L 176.556017 314.176585 
L 180.90581 313.288817 
L 184.968208 312.363464 
L 189.325217 311.270671 
L 194.118769 309.952099 
L 203.363244 307.080327 
L 212.205561 303.951447 
L 221.398191 300.331316 
L 231.769299 295.834217 
L 240.567969 291.706137 
L 250.370062 286.802703 
L 259.760956 281.835942 
L 268.522661 276.992815 
L 276.53001 272.412426 
L 286.821597 266.341463 
L 296.878008 260.246244 
L 304.513127 255.535012 
L 311.384026 251.249239 
L 319.557652 246.111726 
L 326.981942 241.424871 
L 335.090628 236.302826 
L 344.797372 230.194754 
L 353.124064 225.000386 
L 361.632189 219.760197 
L 367.52199 216.184774 
L 374.620447 211.944903 
L 382.703208 207.225739 
L 389.32593 203.458737 
L 397.861842 198.755103 
L 406.366108 194.260472 
L 413.312357 190.747511 
L 421.35803 186.874383 
L 429.494626 183.190629 
L 439.070407 179.183393 
L 449.270382 175.340919 
L 458.411942 172.30305 
L 467.074381 169.805884 
L 472.095122 168.538427 
L 476.829359 167.469635 
L 481.518007 166.536054 
L 485.846925 165.787886 
L 489.448683 165.250945 
L 493.353427 164.758828 
L 496.255453 164.45504 
L 499.180931 164.203321 
L 501.653506 164.033964 
L 504.08387 163.906829 
L 506.652181 163.815464 
L 509.466526 163.766821 
L 511.571215 163.766114 
L 514.143225 163.807268 
L 516.169612 163.872638 
L 518.248154 163.97022 
L 520.567052 164.115989 
L 522.821167 164.295427 
L 525.078765 164.512876 
L 527.760736 164.820884 
L 530.107776 165.135241 
L 532.764463 165.542191 
L 535.197926 165.963167 
L 538.157857 166.538181 
L 542.573239 167.526403 
L 546.811752 168.624697 
L 551.789366 170.105656 
L 556.907872 171.848565 
L 562.009136 173.812617 
L 571.538488 178.106135 
L 580.484797 182.902212 
L 590.828725 189.407907 
L 598.560952 194.967708 
L 606.912881 201.665274 
L 616.36781 210.142199 
L 624.990208 218.727332 
L 634.819257 229.540453 
L 646.391405 243.72026 
" clip-path="url(#pfed3a7b097)" style="fill: none; stroke: #2ca02c; stroke-width: 1.5; stroke-linecap: square"/>
   </g>
   <g id="line2d_18">
    <path d="M 74.219504 137.899269 
L 82.331435 149.210706 
L 90.346504 159.780275 
L 99.141979 170.708283 
L 106.394286 179.208842 
L 114.551306 188.238231 
L 121.4387 195.438664 
L 128.399045 202.334859 
L 136.358491 209.768593 
L 146.518699 218.585809 
L 155.543819 225.815886 
L 164.655261 232.570215 
L 173.486949 238.621786 
L 182.993061 244.620956 
L 190.785007 249.162893 
L 201.442558 254.862424 
L 211.837776 259.891061 
L 219.627003 263.341608 
L 227.337109 266.508943 
L 234.512113 269.250059 
L 242.647239 272.1355 
L 250.05015 274.572371 
L 257.063638 276.729534 
L 265.074118 279.030148 
L 273.539629 281.293132 
L 282.725516 283.579463 
L 292.649108 285.884725 
L 302.619014 288.065165 
L 312.43029 290.114881 
L 321.663715 291.989291 
L 330.253742 293.712454 
L 337.674434 295.204097 
L 346.281771 296.959394 
L 355.360768 298.865742 
L 364.58542 300.889244 
L 372.675953 302.759292 
L 381.870478 305.019438 
L 390.87277 307.398766 
L 400.496329 310.156106 
L 409.091516 312.832675 
L 418.18641 315.91253 
L 428.933914 319.918849 
L 440.245348 324.613993 
L 450.313812 329.250063 
L 461.53893 334.975534 
L 471.362981 340.508995 
L 479.718704 345.62771 
L 490.138578 352.577486 
L 500.254032 359.963922 
L 509.058881 366.937428 
L 516.32879 373.096378 
L 525.930308 381.813095 
L 535.653546 391.347699 
L 545.424484 401.681383 
L 553.78152 411.144898 
L 564.580641 424.265537 
L 575.433737 438.509501 
L 584.773712 451.653679 
L 592.587161 463.303107 
L 602.901586 479.62573 
L 613.552287 497.649142 
L 622.218392 513.221802 
L 629.509024 526.973222 
L 638.62097 545.019405 
L 646.391405 561.183236 
" clip-path="url(#pfed3a7b097)" style="fill: none; stroke: #d62728; stroke-width: 1.5; stroke-linecap: square"/>
   </g>
   <g id="line2d_19">
    <path d="M 74.219504 84.988773 
L 81.690579 97.501948 
L 89.485454 109.997691 
L 99.054685 124.582452 
L 107.645763 136.992835 
L 114.984106 147.100357 
L 122.622608 157.155764 
L 129.274933 165.539159 
L 135.85571 173.50153 
L 146.542422 185.758814 
L 155.350167 195.263201 
L 164.446216 204.541303 
L 173.690668 213.440553 
L 183.201112 222.069625 
L 191.274303 229.000033 
L 199.157728 235.438219 
L 208.18711 242.436737 
L 220.274076 251.224524 
L 230.541471 258.213056 
L 240.311778 264.496909 
L 251.244769 271.149558 
L 262.086588 277.398774 
L 273.034606 283.40721 
L 284.106395 289.225858 
L 293.176766 293.835659 
L 302.793323 298.602581 
L 312.334628 303.242458 
L 321.026618 307.419562 
L 328.478783 310.982711 
L 336.496106 314.816435 
L 345.054294 318.930855 
L 354.321822 323.439127 
L 363.015546 327.74452 
L 371.242066 331.909679 
L 378.706546 335.783852 
L 386.802122 340.106618 
L 395.852774 345.112754 
L 405.945938 350.944872 
L 416.105827 357.119401 
L 424.593003 362.539971 
L 432.697317 367.961996 
L 442.823044 375.105434 
L 452.481197 382.334869 
L 462.922757 390.64779 
L 475.033654 400.992554 
L 486.051901 411.114144 
L 495.343788 420.214628 
L 506.905973 432.309061 
L 517.564494 444.262408 
L 524.780326 452.816908 
L 532.574904 462.495765 
L 541.949144 474.763942 
L 550.282588 486.269538 
L 558.072331 497.555081 
L 564.553448 507.34877 
L 572.042178 519.136548 
L 580.798727 533.581601 
L 589.094485 547.946545 
L 598.208487 564.517507 
L 605.745567 578.865393 
L 612.578676 592.391753 
L 620.010691 607.678264 
L 628.460125 625.804098 
L 638.293363 647.928177 
L 646.391405 667.004227 
" clip-path="url(#pfed3a7b097)" style="fill: none; stroke: #9467bd; stroke-width: 1.5; stroke-linecap: square"/>
   </g>
   <g id="patch_3">
    <path d="M 74.219504 696.105 
L 74.219504 55.888 
" style="fill: none; stroke: #000000; stroke-width: 0.8; stroke-linejoin: miter; stroke-linecap: square"/>
   </g>
   <g id="patch_4">
    <path d="M 675 696.105 
L 675 55.888 
" style="fill: none"/>
   </g>
   <g id="patch_5">
    <path d="M 45.610909 278.993924 
L 675 278.993924 
" style="fill: none; stroke: #000000; stroke-width: 0.8; stroke-linejoin: miter; stroke-linecap: square"/>
   </g>
   <g id="patch_6">
    <path d="M 45.610909 55.888 
L 675 55.888 
" style="fill: none"/>
   </g>
   <g id="text_17">
    <!-- Graph of Characteristic Polynomials -->
    <g transform="translate(252.920455 49.888) scale(0.12 -0.12)">
     <defs>
      <path id="DejaVuSans-47" d="M 3809 666 
L 3809 1919 
L 2778 1919 
L 2778 2438 
L 4434 2438 
L 4434 434 
Q 4069 175 3628 42 
Q 3188 -91 2688 -91 
Q 1594 -91 976 548 
Q 359 1188 359 2328 
Q 359 3472 976 4111 
Q 1594 4750 2688 4750 
Q 3144 4750 3555 4637 
Q 3966 4525 4313 4306 
L 4313 3634 
Q 3963 3931 3569 4081 
Q 3175 4231 2741 4231 
Q 1884 4231 1454 3753 
Q 1025 3275 1025 2328 
Q 1025 1384 1454 906 
Q 1884 428 2741 428 
Q 3075 428 3337 486 
Q 3600 544 3809 666 
z
" transform="scale(0.015625)"/>
      <path id="DejaVuSans-72" d="M 2631 2963 
Q 2534 3019 2420 3045 
Q 2306 3072 2169 3072 
Q 1681 3072 1420 2755 
Q 1159 2438 1159 1844 
L 1159 0 
L 581 0 
L 581 3500 
L 1159 3500 
L 1159 2956 
Q 1341 3275 1631 3429 
Q 1922 3584 2338 3584 
Q 2397 3584 2469 3576 
Q 2541 3569 2628 3553 
L 2631 2963 
z
" transform="scale(0.015625)"/>
      <path id="DejaVuSans-61" d="M 2194 1759 
Q 1497 1759 1228 1600 
Q 959 1441 959 1056 
Q 959 750 1161 570 
Q 1363 391 1709 391 
Q 2188 391 2477 730 
Q 2766 1069 2766 1631 
L 2766 1759 
L 2194 1759 
z
M 3341 1997 
L 3341 0 
L 2766 0 
L 2766 531 
Q 2569 213 2275 61 
Q 1981 -91 1556 -91 
Q 1019 -91 701 211 
Q 384 513 384 1019 
Q 384 1609 779 1909 
Q 1175 2209 1959 2209 
L 2766 2209 
L 2766 2266 
Q 2766 2663 2505 2880 
Q 2244 3097 1772 3097 
Q 1472 3097 1187 3025 
Q 903 2953 641 2809 
L 641 3341 
Q 956 3463 1253 3523 
Q 1550 3584 1831 3584 
Q 2591 3584 2966 3190 
Q 3341 2797 3341 1997 
z
" transform="scale(0.015625)"/>
      <path id="DejaVuSans-68" d="M 3513 2113 
L 3513 0 
L 2938 0 
L 2938 2094 
Q 2938 2591 2744 2837 
Q 2550 3084 2163 3084 
Q 1697 3084 1428 2787 
Q 1159 2491 1159 1978 
L 1159 0 
L 581 0 
L 581 4863 
L 1159 4863 
L 1159 2956 
Q 1366 3272 1645 3428 
Q 1925 3584 2291 3584 
Q 2894 3584 3203 3211 
Q 3513 2838 3513 2113 
z
" transform="scale(0.015625)"/>
      <path id="DejaVuSans-6f" d="M 1959 3097 
Q 1497 3097 1228 2736 
Q 959 2375 959 1747 
Q 959 1119 1226 758 
Q 1494 397 1959 397 
Q 2419 397 2687 759 
Q 2956 1122 2956 1747 
Q 2956 2369 2687 2733 
Q 2419 3097 1959 3097 
z
M 1959 3584 
Q 2709 3584 3137 3096 
Q 3566 2609 3566 1747 
Q 3566 888 3137 398 
Q 2709 -91 1959 -91 
Q 1206 -91 779 398 
Q 353 888 353 1747 
Q 353 2609 779 3096 
Q 1206 3584 1959 3584 
z
" transform="scale(0.015625)"/>
      <path id="DejaVuSans-66" d="M 2375 4863 
L 2375 4384 
L 1825 4384 
Q 1516 4384 1395 4259 
Q 1275 4134 1275 3809 
L 1275 3500 
L 2222 3500 
L 2222 3053 
L 1275 3053 
L 1275 0 
L 697 0 
L 697 3053 
L 147 3053 
L 147 3500 
L 697 3500 
L 697 3744 
Q 697 4328 969 4595 
Q 1241 4863 1831 4863 
L 2375 4863 
z
" transform="scale(0.015625)"/>
      <path id="DejaVuSans-43" d="M 4122 4306 
L 4122 3641 
Q 3803 3938 3442 4084 
Q 3081 4231 2675 4231 
Q 1875 4231 1450 3742 
Q 1025 3253 1025 2328 
Q 1025 1406 1450 917 
Q 1875 428 2675 428 
Q 3081 428 3442 575 
Q 3803 722 4122 1019 
L 4122 359 
Q 3791 134 3420 21 
Q 3050 -91 2638 -91 
Q 1578 -91 968 557 
Q 359 1206 359 2328 
Q 359 3453 968 4101 
Q 1578 4750 2638 4750 
Q 3056 4750 3426 4639 
Q 3797 4528 4122 4306 
z
" transform="scale(0.015625)"/>
      <path id="DejaVuSans-63" d="M 3122 3366 
L 3122 2828 
Q 2878 2963 2633 3030 
Q 2388 3097 2138 3097 
Q 1578 3097 1268 2742 
Q 959 2388 959 1747 
Q 959 1106 1268 751 
Q 1578 397 2138 397 
Q 2388 397 2633 464 
Q 2878 531 3122 666 
L 3122 134 
Q 2881 22 2623 -34 
Q 2366 -91 2075 -91 
Q 1284 -91 818 406 
Q 353 903 353 1747 
Q 353 2603 823 3093 
Q 1294 3584 2113 3584 
Q 2378 3584 2631 3529 
Q 2884 3475 3122 3366 
z
" transform="scale(0.015625)"/>
      <path id="DejaVuSans-69" d="M 603 3500 
L 1178 3500 
L 1178 0 
L 603 0 
L 603 3500 
z
M 603 4863 
L 1178 4863 
L 1178 4134 
L 603 4134 
L 603 4863 
z
" transform="scale(0.015625)"/>
      <path id="DejaVuSans-73" d="M 2834 3397 
L 2834 2853 
Q 2591 2978 2328 3040 
Q 2066 3103 1784 3103 
Q 1356 3103 1142 2972 
Q 928 2841 928 2578 
Q 928 2378 1081 2264 
Q 1234 2150 1697 2047 
L 1894 2003 
Q 2506 1872 2764 1633 
Q 3022 1394 3022 966 
Q 3022 478 2636 193 
Q 2250 -91 1575 -91 
Q 1294 -91 989 -36 
Q 684 19 347 128 
L 347 722 
Q 666 556 975 473 
Q 1284 391 1588 391 
Q 1994 391 2212 530 
Q 2431 669 2431 922 
Q 2431 1156 2273 1281 
Q 2116 1406 1581 1522 
L 1381 1569 
Q 847 1681 609 1914 
Q 372 2147 372 2553 
Q 372 3047 722 3315 
Q 1072 3584 1716 3584 
Q 2034 3584 2315 3537 
Q 2597 3491 2834 3397 
z
" transform="scale(0.015625)"/>
      <path id="DejaVuSans-50" d="M 1259 4147 
L 1259 2394 
L 2053 2394 
Q 2494 2394 2734 2622 
Q 2975 2850 2975 3272 
Q 2975 3691 2734 3919 
Q 2494 4147 2053 4147 
L 1259 4147 
z
M 628 4666 
L 2053 4666 
Q 2838 4666 3239 4311 
Q 3641 3956 3641 3272 
Q 3641 2581 3239 2228 
Q 2838 1875 2053 1875 
L 1259 1875 
L 1259 0 
L 628 0 
L 628 4666 
z
" transform="scale(0.015625)"/>
      <path id="DejaVuSans-6c" d="M 603 4863 
L 1178 4863 
L 1178 0 
L 603 0 
L 603 4863 
z
" transform="scale(0.015625)"/>
      <path id="DejaVuSans-79" d="M 2059 -325 
Q 1816 -950 1584 -1140 
Q 1353 -1331 966 -1331 
L 506 -1331 
L 506 -850 
L 844 -850 
Q 1081 -850 1212 -737 
Q 1344 -625 1503 -206 
L 1606 56 
L 191 3500 
L 800 3500 
L 1894 763 
L 2988 3500 
L 3597 3500 
L 2059 -325 
z
" transform="scale(0.015625)"/>
      <path id="DejaVuSans-6e" d="M 3513 2113 
L 3513 0 
L 2938 0 
L 2938 2094 
Q 2938 2591 2744 2837 
Q 2550 3084 2163 3084 
Q 1697 3084 1428 2787 
Q 1159 2491 1159 1978 
L 1159 0 
L 581 0 
L 581 3500 
L 1159 3500 
L 1159 2956 
Q 1366 3272 1645 3428 
Q 1925 3584 2291 3584 
Q 2894 3584 3203 3211 
Q 3513 2838 3513 2113 
z
" transform="scale(0.015625)"/>
      <path id="DejaVuSans-6d" d="M 3328 2828 
Q 3544 3216 3844 3400 
Q 4144 3584 4550 3584 
Q 5097 3584 5394 3201 
Q 5691 2819 5691 2113 
L 5691 0 
L 5113 0 
L 5113 2094 
Q 5113 2597 4934 2840 
Q 4756 3084 4391 3084 
Q 3944 3084 3684 2787 
Q 3425 2491 3425 1978 
L 3425 0 
L 2847 0 
L 2847 2094 
Q 2847 2600 2669 2842 
Q 2491 3084 2119 3084 
Q 1678 3084 1418 2786 
Q 1159 2488 1159 1978 
L 1159 0 
L 581 0 
L 581 3500 
L 1159 3500 
L 1159 2956 
Q 1356 3278 1631 3431 
Q 1906 3584 2284 3584 
Q 2666 3584 2933 3390 
Q 3200 3197 3328 2828 
z
" transform="scale(0.015625)"/>
     </defs>
     <use xlink:href="#DejaVuSans-47"/>
     <use xlink:href="#DejaVuSans-72" x="77.490234"/>
     <use xlink:href="#DejaVuSans-61" x="118.603516"/>
     <use xlink:href="#DejaVuSans-70" x="179.882812"/>
     <use xlink:href="#DejaVuSans-68" x="243.359375"/>
     <use xlink:href="#DejaVuSans-20" x="306.738281"/>
     <use xlink:href="#DejaVuSans-6f" x="338.525391"/>
     <use xlink:href="#DejaVuSans-66" x="399.707031"/>
     <use xlink:href="#DejaVuSans-20" x="434.912109"/>
     <use xlink:href="#DejaVuSans-43" x="466.699219"/>
     <use xlink:href="#DejaVuSans-68" x="536.523438"/>
     <use xlink:href="#DejaVuSans-61" x="599.902344"/>
     <use xlink:href="#DejaVuSans-72" x="661.181641"/>
     <use xlink:href="#DejaVuSans-61" x="702.294922"/>
     <use xlink:href="#DejaVuSans-63" x="763.574219"/>
     <use xlink:href="#DejaVuSans-74" x="818.554688"/>
     <use xlink:href="#DejaVuSans-65" x="857.763672"/>
     <use xlink:href="#DejaVuSans-72" x="919.287109"/>
     <use xlink:href="#DejaVuSans-69" x="960.400391"/>
     <use xlink:href="#DejaVuSans-73" x="988.183594"/>
     <use xlink:href="#DejaVuSans-74" x="1040.283203"/>
     <use xlink:href="#DejaVuSans-69" x="1079.492188"/>
     <use xlink:href="#DejaVuSans-63" x="1107.275391"/>
     <use xlink:href="#DejaVuSans-20" x="1162.255859"/>
     <use xlink:href="#DejaVuSans-50" x="1194.042969"/>
     <use xlink:href="#DejaVuSans-6f" x="1250.720703"/>
     <use xlink:href="#DejaVuSans-6c" x="1311.902344"/>
     <use xlink:href="#DejaVuSans-79" x="1339.685547"/>
     <use xlink:href="#DejaVuSans-6e" x="1398.865234"/>
     <use xlink:href="#DejaVuSans-6f" x="1462.244141"/>
     <use xlink:href="#DejaVuSans-6d" x="1523.425781"/>
     <use xlink:href="#DejaVuSans-69" x="1620.837891"/>
     <use xlink:href="#DejaVuSans-61" x="1648.621094"/>
     <use xlink:href="#DejaVuSans-6c" x="1709.900391"/>
     <use xlink:href="#DejaVuSans-73" x="1737.683594"/>
    </g>
   </g>
   <g id="legend_1">
    <g id="patch_7">
     <path d="M 592.870312 137.278625 
L 668 137.278625 
Q 670 137.278625 670 135.278625 
L 670 62.888 
Q 670 60.888 668 60.888 
L 592.870312 60.888 
Q 590.870312 60.888 590.870312 62.888 
L 590.870312 135.278625 
Q 590.870312 137.278625 592.870312 137.278625 
z
" style="fill: #ffffff; opacity: 0.8; stroke: #cccccc; stroke-linejoin: miter"/>
    </g>
    <g id="line2d_20">
     <path d="M 594.870312 68.986437 
L 604.870312 68.986437 
L 614.870312 68.986437 
" style="fill: none; stroke: #1f77b4; stroke-width: 1.5; stroke-linecap: square"/>
    </g>
    <g id="text_18">
     <!-- a = 32 -->
     <g transform="translate(622.870312 72.486437) scale(0.1 -0.1)">
      <use xlink:href="#DejaVuSans-61"/>
      <use xlink:href="#DejaVuSans-20" x="61.279297"/>
      <use xlink:href="#DejaVuSans-3d" x="93.066406"/>
      <use xlink:href="#DejaVuSans-20" x="176.855469"/>
      <use xlink:href="#DejaVuSans-33" x="208.642578"/>
      <use xlink:href="#DejaVuSans-32" x="272.265625"/>
     </g>
    </g>
    <g id="line2d_21">
     <path d="M 594.870312 83.664562 
L 604.870312 83.664562 
L 614.870312 83.664562 
" style="fill: none; stroke: #ff7f0e; stroke-width: 1.5; stroke-linecap: square"/>
    </g>
    <g id="text_19">
     <!-- a = 31.9 -->
     <g transform="translate(622.870312 87.164562) scale(0.1 -0.1)">
      <defs>
       <path id="DejaVuSans-39" d="M 703 97 
L 703 672 
Q 941 559 1184 500 
Q 1428 441 1663 441 
Q 2288 441 2617 861 
Q 2947 1281 2994 2138 
Q 2813 1869 2534 1725 
Q 2256 1581 1919 1581 
Q 1219 1581 811 2004 
Q 403 2428 403 3163 
Q 403 3881 828 4315 
Q 1253 4750 1959 4750 
Q 2769 4750 3195 4129 
Q 3622 3509 3622 2328 
Q 3622 1225 3098 567 
Q 2575 -91 1691 -91 
Q 1453 -91 1209 -44 
Q 966 3 703 97 
z
M 1959 2075 
Q 2384 2075 2632 2365 
Q 2881 2656 2881 3163 
Q 2881 3666 2632 3958 
Q 2384 4250 1959 4250 
Q 1534 4250 1286 3958 
Q 1038 3666 1038 3163 
Q 1038 2656 1286 2365 
Q 1534 2075 1959 2075 
z
" transform="scale(0.015625)"/>
      </defs>
      <use xlink:href="#DejaVuSans-61"/>
      <use xlink:href="#DejaVuSans-20" x="61.279297"/>
      <use xlink:href="#DejaVuSans-3d" x="93.066406"/>
      <use xlink:href="#DejaVuSans-20" x="176.855469"/>
      <use xlink:href="#DejaVuSans-33" x="208.642578"/>
      <use xlink:href="#DejaVuSans-31" x="272.265625"/>
      <use xlink:href="#DejaVuSans-2e" x="335.888672"/>
      <use xlink:href="#DejaVuSans-39" x="367.675781"/>
     </g>
    </g>
    <g id="line2d_22">
     <path d="M 594.870312 98.342688 
L 604.870312 98.342688 
L 614.870312 98.342688 
" style="fill: none; stroke: #2ca02c; stroke-width: 1.5; stroke-linecap: square"/>
    </g>
    <g id="text_20">
     <!-- a = 31.8 -->
     <g transform="translate(622.870312 101.842688) scale(0.1 -0.1)">
      <use xlink:href="#DejaVuSans-61"/>
      <use xlink:href="#DejaVuSans-20" x="61.279297"/>
      <use xlink:href="#DejaVuSans-3d" x="93.066406"/>
      <use xlink:href="#DejaVuSans-20" x="176.855469"/>
      <use xlink:href="#DejaVuSans-33" x="208.642578"/>
      <use xlink:href="#DejaVuSans-31" x="272.265625"/>
      <use xlink:href="#DejaVuSans-2e" x="335.888672"/>
      <use xlink:href="#DejaVuSans-38" x="367.675781"/>
     </g>
    </g>
    <g id="line2d_23">
     <path d="M 594.870312 113.020812 
L 604.870312 113.020812 
L 614.870312 113.020812 
" style="fill: none; stroke: #d62728; stroke-width: 1.5; stroke-linecap: square"/>
    </g>
    <g id="text_21">
     <!-- a = 32.1 -->
     <g transform="translate(622.870312 116.520812) scale(0.1 -0.1)">
      <use xlink:href="#DejaVuSans-61"/>
      <use xlink:href="#DejaVuSans-20" x="61.279297"/>
      <use xlink:href="#DejaVuSans-3d" x="93.066406"/>
      <use xlink:href="#DejaVuSans-20" x="176.855469"/>
      <use xlink:href="#DejaVuSans-33" x="208.642578"/>
      <use xlink:href="#DejaVuSans-32" x="272.265625"/>
      <use xlink:href="#DejaVuSans-2e" x="335.888672"/>
      <use xlink:href="#DejaVuSans-31" x="367.675781"/>
     </g>
    </g>
    <g id="line2d_24">
     <path d="M 594.870312 127.698937 
L 604.870312 127.698937 
L 614.870312 127.698937 
" style="fill: none; stroke: #9467bd; stroke-width: 1.5; stroke-linecap: square"/>
    </g>
    <g id="text_22">
     <!-- a = 32.2 -->
     <g transform="translate(622.870312 131.198937) scale(0.1 -0.1)">
      <use xlink:href="#DejaVuSans-61"/>
      <use xlink:href="#DejaVuSans-20" x="61.279297"/>
      <use xlink:href="#DejaVuSans-3d" x="93.066406"/>
      <use xlink:href="#DejaVuSans-20" x="176.855469"/>
      <use xlink:href="#DejaVuSans-33" x="208.642578"/>
      <use xlink:href="#DejaVuSans-32" x="272.265625"/>
      <use xlink:href="#DejaVuSans-2e" x="335.888672"/>
      <use xlink:href="#DejaVuSans-32" x="367.675781"/>
     </g>
    </g>
   </g>
  </g>
 </g>
 <defs>
  <clipPath id="pfed3a7b097">
   <rect x="45.610909" y="55.888" width="629.389091" height="640.217"/>
  </clipPath>
 </defs>
</svg>
